PathFileType	4	(X/Y/Z)	Patient4_TMGait_0pt6_01_left_08.trc.trc
DataRate	CameraRate	NumFrames	NumMarkers	Units	OrigDataRate	OrigDataStartFrame	OrigNumFrames
80.000000000000	80.000000000000	4	33	mm	80.000000000000	53	       141
Frame#	Time	Sacral			L.Shoulder			Chest			R.Shoulder			Neck			R.ASIS			L.ASIS			R.Thigh.Superior			R.Thigh.Lateral			R.Thigh.Inferior			R.Patella			L.Thigh.Superior			L.Thigh.Lateral			L.Thigh.Inferior			L.Patella			L.Shank.Superior			L.Shank.Lateral			L.Shank.Inferior			R.Shank.Superior			R.Shank.Lateral			R.Shank.Inferior			R.Heel			R.Midfoot.Superior			R.Midfoot.Lateral			R.Toe			L.Heel			L.Midfoot.Lateral			L.Midfoot.Superior			L.Toe			L.Elbow			L.Wrist			R.Elbow			R.Wrist			
		X1	Y1	Z1	X2	Y2	Z2	X3	Y3	Z3	X4	Y4	Z4	X5	Y5	Z5	X6	Y6	Z6	X7	Y7	Z7	X8	Y8	Z8	X9	Y9	Z9	X10	Y10	Z10	X11	Y11	Z11	X12	Y12	Z12	X13	Y13	Z13	X14	Y14	Z14	X15	Y15	Z15	X16	Y16	Z16	X17	Y17	Z17	X18	Y18	Z18	X19	Y19	Z19	X20	Y20	Z20	X21	Y21	Z21	X22	Y22	Z22	X23	Y23	Z23	X24	Y24	Z24	X25	Y25	Z25	X26	Y26	Z26	X27	Y27	Z27	X28	Y28	Z28	X29	Y29	Z29	X30	Y30	Z30	X31	Y31	Z31	X32	Y32	Z32	X33	Y33	Z33	

53	10.330000000000	677.744528514678	1002.903995806193	454.999881463613	827.890634081615	1442.152483320109	277.829745684024	936.872567007445	1374.765857655179	435.536409998598	852.492611600516	1439.334558161731	611.791954859140	814.763252475345	1498.800373846680	432.604980579678	906.492668470466	948.509531446859	569.068201767152	892.822498711339	968.702794208080	294.635224855909	991.193209545291	776.302431144088	534.704838299074	953.697933560376	652.809614693187	604.102365596703	1042.142022502959	615.921057764838	522.108464224446	1062.087901537754	501.459737222000	541.138237391652	941.098404264856	751.633463052797	328.311922178019	849.942476045638	636.497443025340	271.864196980093	929.544131839275	557.930620308553	338.986893573369	927.058859209017	488.578285419188	351.611913345486	900.219795320509	416.606327339269	343.477422621987	810.473166559652	302.386343120794	294.552961520908	858.307417943683	192.597518091702	369.023760994996	985.096916778011	426.682179788210	548.200151971655	864.038437172039	386.268111675308	608.180282099226	849.592675420487	278.069418915039	558.097112490281	649.346464806163	218.780278937745	527.465369229441	816.739183489783	158.215345329047	572.168167620304	705.829012540132	158.195433568080	601.681221532781	877.744038007738	43.411828598770	599.383287763253	728.029867399092	37.363459067728	413.723392479397	799.630039847790	35.253633794853	330.354289008531	883.472125294289	96.296509955900	355.620120230776	1011.071449385466	44.985879137469	322.343586486227	839.431609875238	1091.084081254579	147.533370132178	1023.794014346993	906.679487785108	162.812591573799	816.340339916387	1086.358965124872	713.106611945751	930.337870905387	852.444328962932	690.018943694791	
54	10.342500000000	676.329218218254	1003.437379971026	453.690389942683	828.620418564963	1442.943749198960	277.419313047611	936.301244458929	1375.096529297558	435.758814202055	850.785694832839	1439.452126523998	611.503339010348	814.327958619248	1499.401833818956	432.095943373830	904.538156469031	949.518429140085	569.013693029259	892.524318720441	969.133490028806	294.358338580468	991.373753240245	779.783322066032	534.002741011472	956.418458345573	655.773444634717	603.697928402484	1044.813510679192	620.189694724261	521.116434070920	1067.185173602416	506.643904314886	540.362381240527	937.972804187652	750.791066765387	328.630734652684	845.614898279221	636.617024922652	271.490399350461	923.724536611341	557.168653019446	339.024366033384	920.260025703386	487.999818714718	351.714953136961	893.493895732202	416.370130050101	343.378581499113	803.565454634493	302.344981374635	294.377329174368	850.980188614610	192.502677118496	369.007083695868	992.872122357641	429.756308163056	547.645487743519	873.683904910020	384.428842578910	607.688873490856	863.645429895392	275.721336439298	557.565592715546	665.912099758027	207.803425008550	527.218812806516	836.043542651436	155.004842461221	571.881290010901	725.170602286116	149.765373734817	601.307160773065	901.900847894369	43.073804414548	598.545133987320	720.428107603707	37.343162679000	413.719836705931	792.060045466002	35.228482996350	330.350434861649	875.917515021114	96.268355838133	355.620250955294	1003.522195121910	44.919000227703	322.351664469301	845.711825258766	1092.946691464752	145.451090999008	1038.548435224551	917.976141315094	162.695011133942	808.575175442973	1087.102516413413	712.023372348295	906.311814459711	844.927122268918	691.875510564891	
55	10.355000000000	674.907765451834	1003.897327169860	452.415534343045	829.494671766358	1443.660073763658	277.124582933067	935.831183165880	1375.293629289915	436.096454619642	849.181552303953	1439.470327481496	611.308746009308	813.987016751885	1499.897844249443	431.729951485842	902.609853102738	950.389170593678	569.004177196204	892.214465790619	969.435906794910	294.159483853833	991.276306936236	782.838372994657	533.509082463638	958.511900297014	658.401933670846	603.491573402365	1046.747773125960	623.909488946716	520.360692364077	1071.329534103882	511.536564833125	539.894904477211	934.829875901238	749.904784919859	329.035742052582	841.314127314921	636.700503814679	271.107618373118	917.887295962049	556.387965664483	339.053250437586	913.466444291235	487.418128989068	351.760231616764	886.777837963702	416.108493814539	343.253667371582	796.668251259508	302.281690758678	294.182504612167	843.650762449653	192.387757191954	368.970993793301	1000.132761237445	432.478037562508	547.370944961560	883.306638664023	381.696105339445	607.515401869155	878.261565319204	272.619511218158	557.320833183654	683.792066847583	195.205059139822	527.225977487105	856.514196893476	151.048139192885	571.833596340658	745.970526346203	140.172074048926	601.259176163520	927.689268738042	42.602021736170	598.114422526177	712.840128589849	37.326832821473	413.710474257053	784.492810530643	35.199929291741	330.349648009846	868.368436164533	96.231462174693	355.625125708564	995.981117151990	44.835150409272	322.365169257674	851.724214806961	1094.802973191962	143.643823403303	1052.491680013237	929.624204340655	162.854401811633	800.733643380546	1088.005762241965	711.212486446493	882.821529166535	839.269850725068	693.934119225631	
56	10.367500000000	673.493878066714	1004.268790812039	451.178973130345	830.486666860333	1444.272134332380	276.946700953206	935.456684234063	1375.343653753653	436.541552189263	847.691579622205	1439.383768381787	611.207873969097	813.745499127960	1500.267336006969	431.515908706494	900.730980736509	951.095951072585	569.039331711120	891.861163035635	969.589897343127	294.042388250972	990.890021569068	785.386201853550	533.208318803350	959.922751589268	660.613181549978	603.476699413432	1047.903391598203	626.983838712865	519.850230146147	1074.478707593917	516.044436993200	539.717920628115	931.712309243057	748.974080071723	329.482192420100	837.058248799929	636.743467544213	270.715326633374	912.068831995016	555.587661722170	339.060352917048	906.726511483122	486.833638455373	351.740775982981	880.106479556181	415.817066591081	343.101955805700	789.806379512249	302.198099394530	293.967103922432	836.335249994227	192.248429984716	368.915162602326	1006.817241634088	434.826915664786	547.357476098340	892.917346740429	378.178108378779	607.670371061346	893.356923084126	268.959791407494	557.358553592969	703.006035676324	181.405979328768	527.520720304988	878.006639250307	146.630788073093	572.000341587300	768.167007551674	129.812956619164	601.544693856970	954.805179951350	42.265364201028	598.023039586562	705.269972161257	37.316930626029	413.690275867708	776.930246759936	35.168663679160	330.350348497942	860.827134696792	96.186108158669	355.633822107724	988.449272804027	44.731758895237	322.382730084174	857.471614015560	1096.601641196608	142.106667820278	1065.586530043751	941.489486369087	163.272902509458	792.750574021128	1089.077960742937	710.664601266366	860.108264631776	835.361557007126	696.150048649382	
